<?xml version="1.0" encoding="utf-8"?>
<svg data-name="Layer 1" width="100%" height="100%" viewBox="0 0 377 469.44265" xmlns="http://www.w3.org/2000/svg">
  <circle cx="214.243" cy="192" r="13" fill="#6c63ff"/>
  <path d="M 212.955 196.959 C 212.662 196.96 212.377 196.865 212.143 196.69 L 212.129 196.679 L 209.074 194.34 C 208.243 193.707 208.409 192.411 209.373 192.008 C 209.823 191.82 210.339 191.888 210.725 192.185 L 212.704 193.702 L 217.38 187.604 C 217.836 187.009 218.688 186.896 219.283 187.353 L 219.254 187.392 L 219.284 187.353 C 219.878 187.81 219.99 188.661 219.535 189.256 L 214.034 196.43 C 213.777 196.765 213.377 196.961 212.955 196.959 Z" fill="#fff"/>
  <circle cx="214.243" cy="230" r="13" fill="#6c63ff"/>
  <path d="M 212.955 234.959 C 212.662 234.96 212.377 234.865 212.143 234.69 L 212.129 234.679 L 209.074 232.34 C 208.243 231.707 208.409 230.411 209.373 230.008 C 209.823 229.82 210.339 229.888 210.725 230.185 L 212.704 231.702 L 217.38 225.604 C 217.836 225.009 218.688 224.896 219.283 225.353 L 219.254 225.392 L 219.284 225.353 C 219.878 225.81 219.99 226.661 219.535 227.256 L 214.034 234.43 C 213.777 234.765 213.377 234.961 212.955 234.959 Z" fill="#fff"/>
  <circle cx="221.243" cy="274" r="13" fill="#6c63ff"/>
  <path d="M 219.955 278.959 C 219.662 278.96 219.377 278.865 219.143 278.69 L 219.129 278.679 L 216.074 276.34 C 215.243 275.707 215.409 274.411 216.373 274.008 C 216.823 273.82 217.339 273.888 217.725 274.185 L 219.704 275.702 L 224.38 269.604 C 224.836 269.009 225.688 268.896 226.283 269.353 L 226.254 269.392 L 226.284 269.353 C 226.878 269.81 226.99 270.661 226.535 271.256 L 221.034 278.43 C 220.777 278.765 220.377 278.961 219.955 278.959 Z" fill="#fff"/>
  <path d="M 346.599 382.54 C 346.464 382.54 346.38 382.536 346.35 382.534 L 330.21 382.536 L 330.21 380.156 L 346.408 380.156 C 346.783 380.17 354.435 380.386 361.485 371.832 C 371.991 359.082 380.618 327.522 362.058 249.568 C 337.1 144.747 357.916 52.144 368.023 17.195 C 370.162 9.772 364.585 2.371 356.859 2.38 L 115.825 2.38 C 112.108 2.385 108.617 4.162 106.425 7.164 C 102.144 13.054 96.268 24.369 92.591 44.829 L 90.249 44.409 C 94.005 23.504 100.072 11.856 104.501 5.765 C 107.14 2.148 111.347 0.006 115.825 0 L 356.859 0 C 366.169 -0.009 372.888 8.911 370.31 17.857 C 360.254 52.624 339.546 144.746 364.373 249.017 C 383.194 328.067 374.146 360.312 363.242 373.441 C 356.049 382.101 348.124 382.54 346.599 382.54 Z" fill="#e6e6e6"/>
  <path d="M 303.17 425.969 C 303.035 425.969 302.95 425.966 302.921 425.964 L 286.781 425.966 L 286.781 423.586 L 302.979 423.586 C 303.356 423.598 311.005 423.815 318.055 415.261 C 328.561 402.512 337.189 370.951 318.628 292.997 C 293.671 188.176 314.486 95.573 324.594 60.625 C 326.732 53.201 321.155 45.8 313.43 45.809 L 72.395 45.809 C 68.679 45.814 65.187 47.592 62.996 50.594 C 58.714 56.484 52.838 67.799 49.161 88.259 L 46.819 87.838 C 50.576 66.934 56.643 55.286 61.071 49.195 C 63.711 45.577 67.917 43.436 72.395 43.43 L 313.43 43.43 C 322.739 43.421 329.458 52.341 326.88 61.286 C 316.825 96.053 296.117 188.176 320.943 292.446 C 339.765 371.497 330.717 403.741 319.812 416.871 C 312.62 425.53 304.695 425.969 303.17 425.969 Z" fill="#ccc"/>
  <path d="M 277.513 335.88 C 252.683 231.61 273.393 139.48 283.453 104.72 C 286.024 95.775 279.31 86.86 270.003 86.86 L 28.963 86.86 C 24.487 86.865 20.282 89.004 17.643 92.62 C 7.913 106 -12.277 150.37 10.274 273.14 C 22.333 338.82 22.153 383.6 18.213 413.1 C 16.003 429.71 12.593 441.47 9.503 449.4 L 9.173 450.24 C 8.523 451.845 8.183 453.559 8.173 455.29 C 8.127 459.245 9.776 463.03 12.703 465.69 C 13.647 466.574 14.715 467.316 15.873 467.89 C 16.835 468.381 17.852 468.754 18.903 469 C 19.974 469.261 21.072 469.392 22.173 469.39 L 259.493 469.39 C 259.524 469.39 259.603 469.4 259.743 469.4 C 261.263 469.4 269.193 468.96 276.383 460.3 C 287.283 447.17 296.333 414.93 277.513 335.88 Z M 274.623 458.69 C 267.573 467.25 259.923 467.03 259.553 467.02 L 22.173 467.02 C 18.315 467.019 14.707 465.105 12.543 461.91 C 10.645 459.157 10.057 455.707 10.933 452.48 C 11.047 452.017 11.194 451.562 11.373 451.12 C 14.903 442.05 17.519 432.65 19.183 423.06 C 24.823 392.31 25.873 344.86 12.613 272.71 C -9.767 150.85 10.024 107.15 19.563 94.02 C 21.758 91.023 25.248 89.248 28.963 89.24 L 270.003 89.24 C 277.724 89.235 283.296 96.63 281.163 104.05 C 271.053 139 250.243 231.61 275.203 336.43 C 293.763 414.38 285.133 445.94 274.623 458.69 Z" fill="#3f3d56"/>
  <path d="M 163.003 200.4 L 38.817 200.4 C 31.489 200.4 26.909 192.468 30.573 186.122 C 32.274 183.177 35.416 181.363 38.817 181.363 L 163.003 181.363 C 170.33 181.363 174.91 189.295 171.246 195.641 C 169.546 198.586 166.403 200.4 163.003 200.4 Z" fill="#ccc"/>
  <path d="M 163.003 241.4 L 38.817 241.4 C 31.489 241.4 26.909 233.468 30.573 227.122 C 32.274 224.177 35.416 222.363 38.817 222.363 L 163.003 222.363 C 170.33 222.363 174.91 230.295 171.246 236.641 C 169.546 239.586 166.403 241.4 163.003 241.4 Z" fill="#ccc"/>
  <path d="M 173.003 283.4 L 48.817 283.4 C 41.489 283.4 36.909 275.468 40.573 269.122 C 42.274 266.177 45.416 264.363 48.817 264.363 L 173.003 264.363 C 180.33 264.363 184.91 272.295 181.246 278.641 C 179.546 281.586 176.403 283.4 173.003 283.4 Z" fill="#ccc"/>
  <path d="M 180.003 327.4 L 55.817 327.4 C 48.489 327.4 43.909 319.468 47.573 313.122 C 49.274 310.177 52.416 308.363 55.817 308.363 L 180.003 308.363 C 187.33 308.363 191.91 316.295 188.246 322.641 C 186.546 325.586 183.403 327.4 180.003 327.4 Z" fill="#ccc"/>
  <path d="M 180.055 126.491 L 90.817 126.491 C 83.489 126.498 78.901 118.571 82.558 112.221 C 84.259 109.268 87.409 107.45 90.817 107.453 L 180.055 107.453 C 187.383 107.453 191.963 115.385 188.299 121.731 C 186.598 124.676 183.456 126.491 180.055 126.491 Z" fill="#6c63ff"/>
  <circle cx="229.243" cy="317.882" r="13" fill="#ccc"/>
  <path d="M 186.003 370.4 L 61.817 370.4 C 54.489 370.4 49.909 362.468 53.573 356.122 C 55.274 353.177 58.416 351.363 61.817 351.363 L 186.003 351.363 C 193.33 351.363 197.91 359.295 194.246 365.641 C 192.546 368.586 189.403 370.4 186.003 370.4 Z" fill="#ccc"/>
  <circle cx="235.243" cy="360.882" r="13" fill="#ccc"/>
</svg>